<svg width="191" height="73" viewBox="0 0 191 73" fill="none" xmlns="http://www.w3.org/2000/svg">
  <path
    d="M89.1 20.6C89.1 13.8 94.3 8.5 101.3 8.5C105.7 8.5 109.7 10.8 111.7 14.4L105.7 17.9C104.9 16.3 103.3 15.3 101.3 15.3C98.3 15.3 96.1 17.5 96.1 20.6C96.1 23.8 98.3 25.9 101.3 25.9C103.3 25.9 105 24.9 105.7 23.3L111.7 26.7C109.7 30.3 105.8 32.6 101.3 32.6C94.3 32.7 89.1 27.5 89.1 20.6Z"
    fill="url(#paint0_linear)" />
  <path
    d="M112 21C112 14.2 117.4 8.9 124.2 8.9C131 8.9 136.4 14.2 136.4 21C136.4 27.8 131 33.1 124.2 33.1C117.4 33.1 112 27.9 112 21ZM129.4 21C129.4 17.7 127.1 15.6 124.1 15.6C121.1 15.6 118.8 17.8 118.8 21C118.8 24.2 121.1 26.4 124.1 26.4C127.1 26.4 129.4 24.3 129.4 21Z"
    fill="url(#paint1_linear)" />
  <path
    d="M163.6 0V32.1H156.7V29.9C155.2 31.6 152.9 32.7 149.9 32.7C143.9 32.7 138.9 27.4 138.9 20.6C138.9 13.8 143.9 8.5 149.9 8.5C153 8.5 155.2 9.6 156.7 11.3V0H163.6ZM156.7 20.6C156.7 17.2 154.4 15 151.2 15C148 15 145.7 17.2 145.7 20.6C145.7 24 148 26.2 151.2 26.2C154.4 26.2 156.7 24.1 156.7 20.6Z"
    fill="url(#paint2_linear)" />
  <path
    d="M179.1 26.6C181 26.6 182.6 25.9 183.5 24.9L189 28C186.8 31.1 183.4 32.7 179 32.7C171.2 32.7 166.3 27.4 166.3 20.6C166.3 13.8 171.3 8.5 178.5 8.5C185.2 8.5 190.1 13.7 190.1 20.6C190.1 21.6 190 22.5 189.8 23.4H173.5C174.4 25.8 176.5 26.6 179.1 26.6ZM183.3 18.3C182.6 15.6 180.5 14.7 178.4 14.7C175.8 14.7 174 16 173.4 18.3H183.3Z"
    fill="url(#paint3_linear)" />
  <path
    d="M114.9 60.8C114.9 67.6 109.9 72.9 103.9 72.9C100.8 72.9 98.6 71.8 97.1 70.1V72.3H90.2V40.1H97.1V51.4C98.6 49.7 100.9 48.6 103.9 48.6C110 48.7 114.9 53.9 114.9 60.8ZM108.1 60.8C108.1 57.4 105.8 55.2 102.6 55.2C99.4 55.2 97.1 57.4 97.1 60.8C97.1 64.2 99.4 66.4 102.6 66.4C105.8 66.4 108.1 64.2 108.1 60.8Z"
    fill="url(#paint4_linear)" />
  <path d="M118.8 38.7H125.7V72.2H118.8V38.7Z" fill="url(#paint5_linear)" />
  <path
    d="M130.1 43.1C130.1 40.9 132 39 134.2 39C136.4 39 138.3 40.9 138.3 43.1C138.3 45.3 136.4 47.2 134.2 47.2C132 47.2 130.1 45.4 130.1 43.1ZM130.8 49.3H137.7V72.2H130.8V49.3Z"
    fill="url(#paint6_linear)" />
  <path
    d="M151.4 55.9V64C151.4 66 153.1 66.2 156.1 66V72.2C147.1 73.1 144.5 70.4 144.5 64V55.9H140.8V49.3H144.5V44.9L151.4 42.8V49.2H156.1V55.8H151.4V55.9Z"
    fill="url(#paint7_linear)" />
  <path d="M177.7 65.8V72.2H159.4V67.6L168.1 55.7H159.9V49.3H177.3V53.9L168.6 65.8H177.7Z"
    fill="url(#paint8_linear)" />
  <path
    d="M181.5 68.5C181.5 66.1 183.5 64.1 185.9 64.1C188.3 64.1 190.3 66.1 190.3 68.5C190.3 70.9 188.3 72.9 185.9 72.9C183.4 72.9 181.5 70.9 181.5 68.5Z"
    fill="white" />
  <path
    d="M66.9 41.1V66.3C66.9 66.9 66.5 67.3 65.9 67.3H40.9C40.3 67.3 39.9 66.9 39.9 66.3V59.3C39.9 58.7 40.3 58.3 40.9 58.3H57.9V41.1C57.9 40.5 58.3 40.1 58.9 40.1H65.9C66.4 40.1 66.9 40.5 66.9 41.1Z"
    fill="white" />
  <path
    d="M32 6.39999V13.4C32 14 31.6 14.4 31 14.4H14V31.6C14 32.2 13.6 32.6 13 32.6H6C5.4 32.6 5 32.2 5 31.6V6.39999C5 5.79999 5.4 5.39999 6 5.39999H31C31.6 5.39999 32 5.79999 32 6.39999Z"
    fill="white" />
  <path
    d="M58.5858 8.39846C59.3681 7.62485 60.6284 7.62837 61.4063 8.40634L64.0779 11.0779C64.862 11.862 64.8584 13.1344 64.0699 13.9142L57.9142 20.0015C57.1319 20.7752 55.8716 20.7716 55.0937 19.9937L52.4221 17.3221C51.638 16.538 51.6416 15.2656 52.4301 14.4858L58.5858 8.39846Z"
    fill="url(#paint9_linear)" />
  <path
    d="M62.1 27.5C61.5 28.1 60.8 28.3 60.1 28.3C59.4 28.3 58.6 28 58.1 27.5L55.5 25L51.4 20.9L47.3 16.8L44.8 14.3C43.7 13.2 43.7 11.3 44.8 10.2C45.9 9.1 47.8 9.1 48.9 10.2L62.1 23.4C63.2 24.5 63.2 26.4 62.1 27.5Z"
    fill="url(#paint10_linear)" />
  <path
    d="M55.5 25L17.7 71.4C17.3 71.9 16.8 72.1 16.2 72.1L2 72.2C0.9 72.2 0 71.3 0 70.2L0.1 56C0.1 55.4 0.4 54.8 0.8 54.5L47.2 16.7L51.3 20.8L55.5 25Z"
    fill="url(#paint11_linear)" />
  <defs>
    <linearGradient id="paint0_linear" x1="111.135" y1="8.98203" x2="87.6769" y2="31.0916"
      gradientUnits="userSpaceOnUse">
      <stop stop-color="#F8501C" />
      <stop offset="1" stop-color="#FFAB1D" />
    </linearGradient>
    <linearGradient id="paint1_linear" x1="135.79" y1="9.384" x2="112.197" y2="33.2942"
      gradientUnits="userSpaceOnUse">
      <stop stop-color="#F8501C" />
      <stop offset="1" stop-color="#FFAB1D" />
    </linearGradient>
    <linearGradient id="paint2_linear" x1="162.983" y1="0.654001" x2="132.272" y2="23.9702"
      gradientUnits="userSpaceOnUse">
      <stop stop-color="#F8501C" />
      <stop offset="1" stop-color="#FFAB1D" />
    </linearGradient>
    <linearGradient id="paint3_linear" x1="189.505" y1="8.984" x2="165.911" y2="32.3068"
      gradientUnits="userSpaceOnUse">
      <stop stop-color="#F8501C" />
      <stop offset="1" stop-color="#FFAB1D" />
    </linearGradient>
    <linearGradient id="paint4_linear" x1="114.283" y1="40.756" x2="83.5036" y2="64.0529"
      gradientUnits="userSpaceOnUse">
      <stop stop-color="#F8501C" />
      <stop offset="1" stop-color="#FFAB1D" />
    </linearGradient>
    <linearGradient id="paint5_linear" x1="125.528" y1="39.37" x2="112.559" y2="42.0548"
      gradientUnits="userSpaceOnUse">
      <stop stop-color="#F8501C" />
      <stop offset="1" stop-color="#FFAB1D" />
    </linearGradient>
    <linearGradient id="paint6_linear" x1="138.095" y1="39.664" x2="122.956" y2="43.4224"
      gradientUnits="userSpaceOnUse">
      <stop stop-color="#F8501C" />
      <stop offset="1" stop-color="#FFAB1D" />
    </linearGradient>
    <linearGradient id="paint7_linear" x1="155.718" y1="43.3914" x2="132.114" y2="55.6675"
      gradientUnits="userSpaceOnUse">
      <stop stop-color="#F8501C" />
      <stop offset="1" stop-color="#FFAB1D" />
    </linearGradient>
    <linearGradient id="paint8_linear" x1="177.243" y1="49.758" x2="155.44" y2="67.2701"
      gradientUnits="userSpaceOnUse">
      <stop stop-color="#F8501C" />
      <stop offset="1" stop-color="#FFAB1D" />
    </linearGradient>
    <linearGradient id="paint9_linear" x1="65.1375" y1="7.288" x2="51.0983" y2="21.4972"
      gradientUnits="userSpaceOnUse">
      <stop stop-color="#F8501C" />
      <stop offset="1" stop-color="#FFAB1D" />
    </linearGradient>
    <linearGradient id="paint10_linear" x1="62.4512" y1="9.7535" x2="43.9995" y2="28.3244"
      gradientUnits="userSpaceOnUse">
      <stop stop-color="#F8501C" />
      <stop offset="1" stop-color="#FFAB1D" />
    </linearGradient>
    <linearGradient id="paint11_linear" x1="54.1125" y1="17.81" x2="2.12568e-06" y2="72.2"
      gradientUnits="userSpaceOnUse">
      <stop stop-color="#F8501C" />
      <stop offset="1" stop-color="#FFAB1D" />
    </linearGradient>
  </defs>
</svg>
