<svg width="16" height="24" viewBox="0 0 16 24" fill="none" xmlns="http://www.w3.org/2000/svg">
<path d="M15.2728 9.89061H9.25364L14.4497 1.05194C14.5783 0.834228 14.5775 0.567077 14.4476 0.350097C14.3169 0.133301 14.0775 0 13.8182 0H5.09094C4.77787 0 4.50003 0.193725 4.40135 0.480651L0.0377006 13.1838C-0.0369209 13.398 0.000768676 13.6342 0.137133 13.8175C0.274255 14.001 0.493763 14.1094 0.727286 14.1094H6.89719L2.9682 23.0202C2.82748 23.3368 2.94548 23.7055 3.24661 23.8901C3.54283 24.0732 3.94074 24.0251 4.17976 23.7639L15.8162 11.0608C16.0065 10.8541 16.0535 10.558 15.9362 10.3061C15.819 10.0534 15.5592 9.89061 15.2728 9.89061Z" fill="#191C1F"/>
</svg>
